<mxfile host="app.diagrams.net" modified="2023-05-03T13:22:05.004Z" agent="Mozilla/5.0 (Windows NT 10.0; Win64; x64) AppleWebKit/537.36 (KHTML, like Gecko) Chrome/112.0.0.0 Safari/537.36" etag="BHoiq5P20c8dRUMm2O3u" version="21.2.1" type="github">
  <diagram name="Page-1" id="0783ab3e-0a74-02c8-0abd-f7b4e66b4bec">
    <mxGraphModel dx="3793" dy="2333" grid="1" gridSize="10" guides="1" tooltips="1" connect="1" arrows="1" fold="1" page="1" pageScale="1" pageWidth="850" pageHeight="1100" background="none" math="0" shadow="0">
      <root>
        <mxCell id="0" />
        <mxCell id="1" parent="0" />
        <mxCell id="1c1d494c118603dd-1" value="Pool" style="swimlane;html=1;childLayout=stackLayout;startSize=20;rounded=0;shadow=0;comic=0;labelBackgroundColor=none;strokeWidth=1;fontFamily=Verdana;fontSize=12;align=center;fillColor=#FF6726;" parent="1" vertex="1">
          <mxGeometry x="80" y="13" width="2000" height="1400" as="geometry" />
        </mxCell>
        <mxCell id="1c1d494c118603dd-2" value="" style="swimlane;html=1;startSize=20;" parent="1c1d494c118603dd-1" vertex="1">
          <mxGeometry y="20" width="600" height="1380" as="geometry" />
        </mxCell>
        <mxCell id="OMoWTiOt0C33IlhXWpdB-36" style="edgeStyle=orthogonalEdgeStyle;rounded=0;orthogonalLoop=1;jettySize=auto;html=1;exitX=0.5;exitY=1;exitDx=0;exitDy=0;" edge="1" parent="1c1d494c118603dd-1" source="OMoWTiOt0C33IlhXWpdB-7" target="DP1_wo8riHDdqW7WoeD3-17">
          <mxGeometry relative="1" as="geometry">
            <Array as="points">
              <mxPoint x="715" y="701" />
              <mxPoint x="1315" y="701" />
            </Array>
          </mxGeometry>
        </mxCell>
        <mxCell id="1c1d494c118603dd-3" value="General Lane ( news , Email)&amp;nbsp;" style="swimlane;html=1;startSize=20;" parent="1c1d494c118603dd-1" vertex="1">
          <mxGeometry x="600" y="20" width="680" height="1380" as="geometry" />
        </mxCell>
        <mxCell id="OMoWTiOt0C33IlhXWpdB-61" style="edgeStyle=orthogonalEdgeStyle;rounded=0;orthogonalLoop=1;jettySize=auto;html=1;entryX=0.5;entryY=0;entryDx=0;entryDy=0;" edge="1" parent="1c1d494c118603dd-3" source="OMoWTiOt0C33IlhXWpdB-167" target="DP1_wo8riHDdqW7WoeD3-19">
          <mxGeometry relative="1" as="geometry">
            <mxPoint x="110" y="823" as="sourcePoint" />
            <Array as="points">
              <mxPoint x="110" y="813" />
              <mxPoint x="350" y="813" />
            </Array>
          </mxGeometry>
        </mxCell>
        <mxCell id="OMoWTiOt0C33IlhXWpdB-64" value="Map" style="edgeLabel;html=1;align=center;verticalAlign=middle;resizable=0;points=[];" vertex="1" connectable="0" parent="OMoWTiOt0C33IlhXWpdB-61">
          <mxGeometry x="0.655" y="3" relative="1" as="geometry">
            <mxPoint x="-33" y="1" as="offset" />
          </mxGeometry>
        </mxCell>
        <mxCell id="OMoWTiOt0C33IlhXWpdB-46" style="edgeStyle=orthogonalEdgeStyle;rounded=0;orthogonalLoop=1;jettySize=auto;html=1;entryX=0.5;entryY=0;entryDx=0;entryDy=0;" edge="1" parent="1c1d494c118603dd-3" source="60571a20871a0731-4" target="60571a20871a0731-8">
          <mxGeometry relative="1" as="geometry">
            <mxPoint x="115" y="162" as="sourcePoint" />
            <mxPoint x="115" y="202" as="targetPoint" />
          </mxGeometry>
        </mxCell>
        <mxCell id="60571a20871a0731-4" value="" style="ellipse;whiteSpace=wrap;html=1;rounded=0;shadow=0;comic=0;labelBackgroundColor=none;strokeWidth=1;fillColor=#000000;fontFamily=Verdana;fontSize=12;align=center;" parent="1c1d494c118603dd-3" vertex="1">
          <mxGeometry x="95" y="40" width="40" height="40" as="geometry" />
        </mxCell>
        <mxCell id="OMoWTiOt0C33IlhXWpdB-165" style="edgeStyle=orthogonalEdgeStyle;rounded=0;orthogonalLoop=1;jettySize=auto;html=1;entryX=0.5;entryY=0;entryDx=0;entryDy=0;" edge="1" parent="1c1d494c118603dd-3" source="OMoWTiOt0C33IlhXWpdB-7">
          <mxGeometry relative="1" as="geometry">
            <mxPoint x="115" y="806" as="targetPoint" />
          </mxGeometry>
        </mxCell>
        <mxCell id="OMoWTiOt0C33IlhXWpdB-7" value="" style="rhombus;whiteSpace=wrap;html=1;" vertex="1" parent="1c1d494c118603dd-3">
          <mxGeometry x="87.5" y="656" width="55" height="50" as="geometry" />
        </mxCell>
        <mxCell id="OMoWTiOt0C33IlhXWpdB-189" style="edgeStyle=orthogonalEdgeStyle;rounded=0;orthogonalLoop=1;jettySize=auto;html=1;entryX=0.5;entryY=0;entryDx=0;entryDy=0;" edge="1" parent="1c1d494c118603dd-3" source="OMoWTiOt0C33IlhXWpdB-31" target="OMoWTiOt0C33IlhXWpdB-181">
          <mxGeometry relative="1" as="geometry" />
        </mxCell>
        <mxCell id="OMoWTiOt0C33IlhXWpdB-31" value="Authenticate/Login" style="rounded=1;whiteSpace=wrap;html=1;shadow=0;comic=0;labelBackgroundColor=none;strokeWidth=1;fontFamily=Verdana;fontSize=12;align=center;arcSize=50;" vertex="1" parent="1c1d494c118603dd-3">
          <mxGeometry x="45" y="211" width="140" height="44" as="geometry" />
        </mxCell>
        <mxCell id="OMoWTiOt0C33IlhXWpdB-33" value="Professor Specific" style="text;html=1;align=center;verticalAlign=middle;resizable=0;points=[];autosize=1;strokeColor=none;fillColor=none;" vertex="1" parent="1c1d494c118603dd-3">
          <mxGeometry x="525" y="656" width="120" height="30" as="geometry" />
        </mxCell>
        <mxCell id="1c1d494c118603dd-19" value="Exit App" style="rounded=1;whiteSpace=wrap;html=1;shadow=0;comic=0;labelBackgroundColor=none;strokeWidth=1;fontFamily=Verdana;fontSize=12;align=center;arcSize=50;" parent="1c1d494c118603dd-3" vertex="1">
          <mxGeometry x="30" y="1586" width="100" height="30" as="geometry" />
        </mxCell>
        <mxCell id="1c1d494c118603dd-18" value="Action" style="rounded=1;whiteSpace=wrap;html=1;shadow=0;comic=0;labelBackgroundColor=none;strokeWidth=1;fontFamily=Verdana;fontSize=12;align=center;arcSize=50;" parent="1c1d494c118603dd-3" vertex="1">
          <mxGeometry x="35" y="1476" width="100" height="30" as="geometry" />
        </mxCell>
        <mxCell id="1c1d494c118603dd-44" style="edgeStyle=none;rounded=0;html=1;labelBackgroundColor=none;startArrow=none;startFill=0;startSize=5;endArrow=classicThin;endFill=1;endSize=5;jettySize=auto;orthogonalLoop=1;strokeWidth=1;fontFamily=Verdana;fontSize=12" parent="1c1d494c118603dd-3" source="1c1d494c118603dd-18" target="1c1d494c118603dd-19" edge="1">
          <mxGeometry relative="1" as="geometry" />
        </mxCell>
        <mxCell id="OMoWTiOt0C33IlhXWpdB-132" style="edgeStyle=orthogonalEdgeStyle;rounded=0;orthogonalLoop=1;jettySize=auto;html=1;exitX=0.5;exitY=1;exitDx=0;exitDy=0;" edge="1" parent="1c1d494c118603dd-3" source="60571a20871a0731-8">
          <mxGeometry relative="1" as="geometry">
            <mxPoint x="115" y="217" as="sourcePoint" />
            <mxPoint x="115" y="211" as="targetPoint" />
          </mxGeometry>
        </mxCell>
        <mxCell id="60571a20871a0731-8" value="User Opens IITI HUB app" style="rounded=1;whiteSpace=wrap;html=1;shadow=0;comic=0;labelBackgroundColor=none;strokeWidth=1;fontFamily=Verdana;fontSize=12;align=center;arcSize=50;" parent="1c1d494c118603dd-3" vertex="1">
          <mxGeometry x="45" y="111" width="140" height="50" as="geometry" />
        </mxCell>
        <mxCell id="DP1_wo8riHDdqW7WoeD3-19" value="Show Map" style="rounded=1;whiteSpace=wrap;html=1;shadow=0;comic=0;labelBackgroundColor=none;strokeWidth=1;fontFamily=Verdana;fontSize=12;align=center;arcSize=50;" parent="1c1d494c118603dd-3" vertex="1">
          <mxGeometry x="300" y="893" width="100" height="30" as="geometry" />
        </mxCell>
        <mxCell id="DP1_wo8riHDdqW7WoeD3-18" value="Show Latest News in IIT Indore" style="rounded=1;whiteSpace=wrap;html=1;shadow=0;comic=0;labelBackgroundColor=none;strokeWidth=1;fontFamily=Verdana;fontSize=12;align=center;arcSize=50;" parent="1c1d494c118603dd-3" vertex="1">
          <mxGeometry x="165" y="976" width="120" height="50" as="geometry" />
        </mxCell>
        <mxCell id="OMoWTiOt0C33IlhXWpdB-65" value="Open News URL" style="rounded=1;whiteSpace=wrap;html=1;shadow=0;comic=0;labelBackgroundColor=none;strokeWidth=1;fontFamily=Verdana;fontSize=12;align=center;arcSize=29;" vertex="1" parent="1c1d494c118603dd-3">
          <mxGeometry x="165" y="1086" width="100" height="30" as="geometry" />
        </mxCell>
        <mxCell id="OMoWTiOt0C33IlhXWpdB-66" value="" style="edgeStyle=orthogonalEdgeStyle;rounded=0;orthogonalLoop=1;jettySize=auto;html=1;" edge="1" parent="1c1d494c118603dd-3" source="DP1_wo8riHDdqW7WoeD3-18" target="OMoWTiOt0C33IlhXWpdB-65">
          <mxGeometry relative="1" as="geometry">
            <mxPoint x="1010" y="1106" as="targetPoint" />
            <mxPoint x="1010" y="1056" as="sourcePoint" />
            <Array as="points">
              <mxPoint x="225" y="1096" />
              <mxPoint x="240" y="1096" />
            </Array>
          </mxGeometry>
        </mxCell>
        <mxCell id="OMoWTiOt0C33IlhXWpdB-37" value="Student Specific" style="text;html=1;align=center;verticalAlign=middle;resizable=0;points=[];autosize=1;strokeColor=none;fillColor=none;" vertex="1" parent="1c1d494c118603dd-3">
          <mxGeometry x="315" y="703" width="110" height="30" as="geometry" />
        </mxCell>
        <mxCell id="OMoWTiOt0C33IlhXWpdB-141" style="edgeStyle=orthogonalEdgeStyle;rounded=0;orthogonalLoop=1;jettySize=auto;html=1;entryX=0.5;entryY=0;entryDx=0;entryDy=0;" edge="1" parent="1c1d494c118603dd-3">
          <mxGeometry relative="1" as="geometry">
            <mxPoint x="115.00000000000045" y="833" as="sourcePoint" />
            <mxPoint x="225" y="963" as="targetPoint" />
            <Array as="points">
              <mxPoint x="115" y="813" />
              <mxPoint x="225" y="813" />
            </Array>
          </mxGeometry>
        </mxCell>
        <mxCell id="OMoWTiOt0C33IlhXWpdB-156" style="edgeStyle=orthogonalEdgeStyle;rounded=0;orthogonalLoop=1;jettySize=auto;html=1;" edge="1" parent="1c1d494c118603dd-3">
          <mxGeometry relative="1" as="geometry">
            <mxPoint x="177.5" y="813" as="sourcePoint" />
            <mxPoint x="504.99999999999955" y="993" as="targetPoint" />
          </mxGeometry>
        </mxCell>
        <mxCell id="OMoWTiOt0C33IlhXWpdB-137" value="News" style="text;html=1;align=center;verticalAlign=middle;resizable=0;points=[];autosize=1;strokeColor=none;fillColor=none;" vertex="1" parent="1c1d494c118603dd-3">
          <mxGeometry x="175" y="833" width="50" height="30" as="geometry" />
        </mxCell>
        <mxCell id="OMoWTiOt0C33IlhXWpdB-95" value="Update News" style="rounded=1;whiteSpace=wrap;html=1;shadow=0;comic=0;labelBackgroundColor=none;strokeWidth=1;fontFamily=Verdana;fontSize=12;align=center;arcSize=50;" vertex="1" parent="1c1d494c118603dd-3">
          <mxGeometry x="-10" y="1010.5" width="100" height="40" as="geometry" />
        </mxCell>
        <mxCell id="OMoWTiOt0C33IlhXWpdB-126" style="edgeStyle=orthogonalEdgeStyle;rounded=0;orthogonalLoop=1;jettySize=auto;html=1;entryX=0;entryY=0.75;entryDx=0;entryDy=0;" edge="1" parent="1c1d494c118603dd-3" source="OMoWTiOt0C33IlhXWpdB-95" target="DP1_wo8riHDdqW7WoeD3-18">
          <mxGeometry relative="1" as="geometry" />
        </mxCell>
        <mxCell id="OMoWTiOt0C33IlhXWpdB-177" style="edgeStyle=orthogonalEdgeStyle;rounded=0;orthogonalLoop=1;jettySize=auto;html=1;entryX=0.5;entryY=0;entryDx=0;entryDy=0;" edge="1" parent="1c1d494c118603dd-3" source="OMoWTiOt0C33IlhXWpdB-158" target="OMoWTiOt0C33IlhXWpdB-170">
          <mxGeometry relative="1" as="geometry" />
        </mxCell>
        <mxCell id="OMoWTiOt0C33IlhXWpdB-158" value="Show Email Tags" style="rounded=1;whiteSpace=wrap;html=1;shadow=0;comic=0;labelBackgroundColor=none;strokeWidth=1;fontFamily=Verdana;fontSize=12;align=center;arcSize=50;" vertex="1" parent="1c1d494c118603dd-3">
          <mxGeometry x="450" y="1010.5" width="100" height="35.5" as="geometry" />
        </mxCell>
        <mxCell id="OMoWTiOt0C33IlhXWpdB-159" value="Email" style="text;html=1;align=center;verticalAlign=middle;resizable=0;points=[];autosize=1;strokeColor=none;fillColor=none;" vertex="1" parent="1c1d494c118603dd-3">
          <mxGeometry x="450" y="833" width="50" height="30" as="geometry" />
        </mxCell>
        <mxCell id="OMoWTiOt0C33IlhXWpdB-163" value="User Performs an Activity" style="text;html=1;align=center;verticalAlign=middle;resizable=0;points=[];autosize=1;strokeColor=none;fillColor=none;" vertex="1" parent="1c1d494c118603dd-3">
          <mxGeometry x="115" y="607" width="160" height="30" as="geometry" />
        </mxCell>
        <mxCell id="OMoWTiOt0C33IlhXWpdB-164" value="General Activity" style="text;html=1;align=center;verticalAlign=middle;resizable=0;points=[];autosize=1;strokeColor=none;fillColor=none;" vertex="1" parent="1c1d494c118603dd-3">
          <mxGeometry x="10" y="727" width="110" height="30" as="geometry" />
        </mxCell>
        <mxCell id="OMoWTiOt0C33IlhXWpdB-167" value="" style="rhombus;whiteSpace=wrap;html=1;" vertex="1" parent="1c1d494c118603dd-3">
          <mxGeometry x="87.5" y="793" width="55" height="50" as="geometry" />
        </mxCell>
        <mxCell id="OMoWTiOt0C33IlhXWpdB-171" style="edgeStyle=orthogonalEdgeStyle;rounded=0;orthogonalLoop=1;jettySize=auto;html=1;exitX=0.5;exitY=1;exitDx=0;exitDy=0;" edge="1" parent="1c1d494c118603dd-3" source="OMoWTiOt0C33IlhXWpdB-170">
          <mxGeometry relative="1" as="geometry">
            <mxPoint x="511" y="1186" as="targetPoint" />
          </mxGeometry>
        </mxCell>
        <mxCell id="OMoWTiOt0C33IlhXWpdB-170" value="Show Tag Specific Email List" style="rounded=1;whiteSpace=wrap;html=1;shadow=0;comic=0;labelBackgroundColor=none;strokeWidth=1;fontFamily=Verdana;fontSize=12;align=center;arcSize=29;" vertex="1" parent="1c1d494c118603dd-3">
          <mxGeometry x="450" y="1096" width="130" height="30" as="geometry" />
        </mxCell>
        <mxCell id="OMoWTiOt0C33IlhXWpdB-172" value="Show Email Content" style="rounded=1;whiteSpace=wrap;html=1;shadow=0;comic=0;labelBackgroundColor=none;strokeWidth=1;fontFamily=Verdana;fontSize=12;align=center;arcSize=29;" vertex="1" parent="1c1d494c118603dd-3">
          <mxGeometry x="450" y="1196" width="100" height="30" as="geometry" />
        </mxCell>
        <mxCell id="OMoWTiOt0C33IlhXWpdB-190" style="edgeStyle=orthogonalEdgeStyle;rounded=0;orthogonalLoop=1;jettySize=auto;html=1;entryX=1;entryY=0.5;entryDx=0;entryDy=0;" edge="1" parent="1c1d494c118603dd-3" source="OMoWTiOt0C33IlhXWpdB-181" target="OMoWTiOt0C33IlhXWpdB-31">
          <mxGeometry relative="1" as="geometry">
            <Array as="points">
              <mxPoint x="230" y="319" />
              <mxPoint x="230" y="233" />
            </Array>
          </mxGeometry>
        </mxCell>
        <mxCell id="OMoWTiOt0C33IlhXWpdB-228" style="edgeStyle=orthogonalEdgeStyle;rounded=0;orthogonalLoop=1;jettySize=auto;html=1;entryX=0.5;entryY=0;entryDx=0;entryDy=0;" edge="1" parent="1c1d494c118603dd-3" source="OMoWTiOt0C33IlhXWpdB-181" target="OMoWTiOt0C33IlhXWpdB-210">
          <mxGeometry relative="1" as="geometry" />
        </mxCell>
        <mxCell id="OMoWTiOt0C33IlhXWpdB-181" value="" style="rhombus;whiteSpace=wrap;html=1;" vertex="1" parent="1c1d494c118603dd-3">
          <mxGeometry x="87.5" y="292" width="55" height="54" as="geometry" />
        </mxCell>
        <mxCell id="OMoWTiOt0C33IlhXWpdB-183" value="Unsuccessful" style="text;html=1;align=center;verticalAlign=middle;resizable=0;points=[];autosize=1;strokeColor=none;fillColor=none;" vertex="1" parent="1c1d494c118603dd-3">
          <mxGeometry x="225" y="251" width="90" height="30" as="geometry" />
        </mxCell>
        <mxCell id="OMoWTiOt0C33IlhXWpdB-184" value="Successful" style="text;html=1;align=center;verticalAlign=middle;resizable=0;points=[];autosize=1;strokeColor=none;fillColor=none;" vertex="1" parent="1c1d494c118603dd-3">
          <mxGeometry x="40" y="346" width="80" height="30" as="geometry" />
        </mxCell>
        <mxCell id="OMoWTiOt0C33IlhXWpdB-195" style="edgeStyle=orthogonalEdgeStyle;rounded=0;orthogonalLoop=1;jettySize=auto;html=1;entryX=0.5;entryY=0;entryDx=0;entryDy=0;" edge="1" parent="1c1d494c118603dd-3" source="OMoWTiOt0C33IlhXWpdB-191" target="OMoWTiOt0C33IlhXWpdB-7">
          <mxGeometry relative="1" as="geometry" />
        </mxCell>
        <mxCell id="OMoWTiOt0C33IlhXWpdB-191" value="Show User&#39;s Home Page" style="rounded=1;whiteSpace=wrap;html=1;shadow=0;comic=0;labelBackgroundColor=none;strokeWidth=1;fontFamily=Verdana;fontSize=12;align=center;arcSize=50;" vertex="1" parent="1c1d494c118603dd-3">
          <mxGeometry x="65" y="561" width="100" height="30" as="geometry" />
        </mxCell>
        <mxCell id="OMoWTiOt0C33IlhXWpdB-225" style="edgeStyle=orthogonalEdgeStyle;rounded=0;orthogonalLoop=1;jettySize=auto;html=1;entryX=0.5;entryY=0;entryDx=0;entryDy=0;" edge="1" parent="1c1d494c118603dd-3" source="OMoWTiOt0C33IlhXWpdB-210" target="OMoWTiOt0C33IlhXWpdB-219">
          <mxGeometry relative="1" as="geometry" />
        </mxCell>
        <mxCell id="OMoWTiOt0C33IlhXWpdB-210" value="" style="rhombus;whiteSpace=wrap;html=1;" vertex="1" parent="1c1d494c118603dd-3">
          <mxGeometry x="87.5" y="382" width="55" height="54" as="geometry" />
        </mxCell>
        <mxCell id="OMoWTiOt0C33IlhXWpdB-224" style="edgeStyle=orthogonalEdgeStyle;rounded=0;orthogonalLoop=1;jettySize=auto;html=1;entryX=1;entryY=0.5;entryDx=0;entryDy=0;" edge="1" parent="1c1d494c118603dd-3" source="OMoWTiOt0C33IlhXWpdB-216" target="OMoWTiOt0C33IlhXWpdB-219">
          <mxGeometry relative="1" as="geometry">
            <Array as="points">
              <mxPoint x="235" y="509" />
            </Array>
          </mxGeometry>
        </mxCell>
        <mxCell id="OMoWTiOt0C33IlhXWpdB-216" value="Add user appropriately" style="rounded=1;whiteSpace=wrap;html=1;shadow=0;comic=0;labelBackgroundColor=none;strokeWidth=1;fontFamily=Verdana;fontSize=12;align=center;arcSize=50;" vertex="1" parent="1c1d494c118603dd-3">
          <mxGeometry x="185" y="462" width="100" height="30" as="geometry" />
        </mxCell>
        <mxCell id="OMoWTiOt0C33IlhXWpdB-226" style="edgeStyle=orthogonalEdgeStyle;rounded=0;orthogonalLoop=1;jettySize=auto;html=1;entryX=0.5;entryY=0;entryDx=0;entryDy=0;" edge="1" parent="1c1d494c118603dd-3" source="OMoWTiOt0C33IlhXWpdB-219" target="OMoWTiOt0C33IlhXWpdB-191">
          <mxGeometry relative="1" as="geometry" />
        </mxCell>
        <mxCell id="OMoWTiOt0C33IlhXWpdB-219" value="" style="rhombus;whiteSpace=wrap;html=1;" vertex="1" parent="1c1d494c118603dd-3">
          <mxGeometry x="87.5" y="482" width="55" height="54" as="geometry" />
        </mxCell>
        <mxCell id="OMoWTiOt0C33IlhXWpdB-221" style="edgeStyle=orthogonalEdgeStyle;rounded=0;orthogonalLoop=1;jettySize=auto;html=1;entryX=0.5;entryY=0;entryDx=0;entryDy=0;" edge="1" parent="1c1d494c118603dd-3" source="OMoWTiOt0C33IlhXWpdB-210" target="OMoWTiOt0C33IlhXWpdB-216">
          <mxGeometry relative="1" as="geometry" />
        </mxCell>
        <mxCell id="OMoWTiOt0C33IlhXWpdB-222" value="New User" style="edgeLabel;html=1;align=center;verticalAlign=middle;resizable=0;points=[];" vertex="1" connectable="0" parent="OMoWTiOt0C33IlhXWpdB-221">
          <mxGeometry x="0.309" y="2" relative="1" as="geometry">
            <mxPoint x="33" y="-3" as="offset" />
          </mxGeometry>
        </mxCell>
        <mxCell id="OMoWTiOt0C33IlhXWpdB-227" value="Old User" style="text;html=1;align=center;verticalAlign=middle;resizable=0;points=[];autosize=1;strokeColor=none;fillColor=none;" vertex="1" parent="1c1d494c118603dd-3">
          <mxGeometry x="45" y="452" width="70" height="30" as="geometry" />
        </mxCell>
        <mxCell id="1c1d494c118603dd-4" value="Projects" style="swimlane;html=1;startSize=20;fillColor=#FF7559;" parent="1c1d494c118603dd-1" vertex="1">
          <mxGeometry x="1280" y="20" width="500" height="1380" as="geometry" />
        </mxCell>
        <mxCell id="OMoWTiOt0C33IlhXWpdB-121" style="edgeStyle=orthogonalEdgeStyle;rounded=0;orthogonalLoop=1;jettySize=auto;html=1;" edge="1" parent="1c1d494c118603dd-4" source="DP1_wo8riHDdqW7WoeD3-17">
          <mxGeometry relative="1" as="geometry">
            <mxPoint x="110" y="856" as="targetPoint" />
          </mxGeometry>
        </mxCell>
        <mxCell id="DP1_wo8riHDdqW7WoeD3-17" value="Show Project" style="rounded=1;whiteSpace=wrap;html=1;shadow=0;comic=0;labelBackgroundColor=none;strokeWidth=1;fontFamily=Verdana;fontSize=12;align=center;arcSize=50;" parent="1c1d494c118603dd-4" vertex="1">
          <mxGeometry x="-15" y="746" width="100" height="30" as="geometry" />
        </mxCell>
        <mxCell id="1c1d494c118603dd-5" value="Search for keywords in projects(all content)" style="rounded=1;whiteSpace=wrap;html=1;shadow=0;comic=0;labelBackgroundColor=none;strokeWidth=1;fontFamily=Verdana;fontSize=12;align=center;arcSize=50;" parent="1c1d494c118603dd-4" vertex="1">
          <mxGeometry x="30" y="883" width="160" height="40" as="geometry" />
        </mxCell>
        <mxCell id="OMoWTiOt0C33IlhXWpdB-118" value="" style="edgeStyle=orthogonalEdgeStyle;rounded=0;orthogonalLoop=1;jettySize=auto;html=1;" edge="1" parent="1c1d494c118603dd-4" source="OMoWTiOt0C33IlhXWpdB-100" target="OMoWTiOt0C33IlhXWpdB-117">
          <mxGeometry relative="1" as="geometry" />
        </mxCell>
        <mxCell id="OMoWTiOt0C33IlhXWpdB-100" value="Add Project" style="rounded=1;whiteSpace=wrap;html=1;shadow=0;comic=0;labelBackgroundColor=none;strokeWidth=1;fontFamily=Verdana;fontSize=12;align=center;arcSize=50;" vertex="1" parent="1c1d494c118603dd-4">
          <mxGeometry x="270" y="746" width="100" height="30" as="geometry" />
        </mxCell>
        <mxCell id="OMoWTiOt0C33IlhXWpdB-117" value="Professor updates his/her project&#39;s relevant skills, and timeline." style="whiteSpace=wrap;html=1;fontFamily=Verdana;rounded=1;shadow=0;comic=0;labelBackgroundColor=none;strokeWidth=1;arcSize=50;" vertex="1" parent="1c1d494c118603dd-4">
          <mxGeometry x="250" y="876" width="140" height="75" as="geometry" />
        </mxCell>
        <mxCell id="OMoWTiOt0C33IlhXWpdB-122" value="&lt;b&gt;Students apply for projects&lt;/b&gt;" style="rounded=1;whiteSpace=wrap;html=1;shadow=0;comic=0;labelBackgroundColor=none;strokeWidth=1;fontFamily=Verdana;fontSize=12;align=center;arcSize=50;fillColor=#FF7D26;" vertex="1" parent="1c1d494c118603dd-4">
          <mxGeometry x="40" y="973" width="120" height="30" as="geometry" />
        </mxCell>
        <mxCell id="OMoWTiOt0C33IlhXWpdB-206" style="edgeStyle=orthogonalEdgeStyle;rounded=0;orthogonalLoop=1;jettySize=auto;html=1;" edge="1" parent="1c1d494c118603dd-4" source="OMoWTiOt0C33IlhXWpdB-201">
          <mxGeometry relative="1" as="geometry">
            <mxPoint x="320" y="743" as="targetPoint" />
          </mxGeometry>
        </mxCell>
        <mxCell id="OMoWTiOt0C33IlhXWpdB-201" value="" style="rhombus;whiteSpace=wrap;html=1;" vertex="1" parent="1c1d494c118603dd-4">
          <mxGeometry x="210" y="663" width="55" height="50" as="geometry" />
        </mxCell>
        <mxCell id="OMoWTiOt0C33IlhXWpdB-205" style="edgeStyle=orthogonalEdgeStyle;rounded=0;orthogonalLoop=1;jettySize=auto;html=1;entryX=0;entryY=0.5;entryDx=0;entryDy=0;" edge="1" parent="1c1d494c118603dd-1" source="OMoWTiOt0C33IlhXWpdB-7" target="OMoWTiOt0C33IlhXWpdB-201">
          <mxGeometry relative="1" as="geometry">
            <Array as="points">
              <mxPoint x="1490" y="701" />
            </Array>
          </mxGeometry>
        </mxCell>
        <mxCell id="DP1_wo8riHDdqW7WoeD3-5" value="Process: Activity Diagram" style="rounded=0;whiteSpace=wrap;html=1;" parent="1" vertex="1">
          <mxGeometry x="690" y="-320" width="120" height="60" as="geometry" />
        </mxCell>
        <mxCell id="DP1_wo8riHDdqW7WoeD3-22" value="Action" style="rounded=1;whiteSpace=wrap;html=1;shadow=0;comic=0;labelBackgroundColor=none;strokeWidth=1;fontFamily=Verdana;fontSize=12;align=center;arcSize=50;" parent="1" vertex="1">
          <mxGeometry x="70" y="-150" width="100" height="30" as="geometry" />
        </mxCell>
        <mxCell id="DP1_wo8riHDdqW7WoeD3-37" value="&amp;lt;system&amp;gt;&lt;br&gt;IITI HUB" style="whiteSpace=wrap;html=1;aspect=fixed;" parent="1" vertex="1">
          <mxGeometry x="350" y="-290" width="80" height="80" as="geometry" />
        </mxCell>
        <mxCell id="DP1_wo8riHDdqW7WoeD3-38" value="" style="rounded=0;whiteSpace=wrap;html=1;" parent="1" vertex="1">
          <mxGeometry x="480" y="-290" width="120" height="60" as="geometry" />
        </mxCell>
        <mxCell id="DP1_wo8riHDdqW7WoeD3-39" value="" style="rounded=0;whiteSpace=wrap;html=1;" parent="1" vertex="1">
          <mxGeometry x="180" y="-340" width="120" height="60" as="geometry" />
        </mxCell>
        <mxCell id="DP1_wo8riHDdqW7WoeD3-40" value="Context Diagram" style="rounded=0;whiteSpace=wrap;html=1;" parent="1" vertex="1">
          <mxGeometry x="300" y="-440" width="130" height="60" as="geometry" />
        </mxCell>
        <mxCell id="DP1_wo8riHDdqW7WoeD3-41" value="&amp;lt;system&amp;gt;&lt;br&gt;Email Server: Gmail&lt;br&gt;(not implement our own)" style="rounded=0;whiteSpace=wrap;html=1;" parent="1" vertex="1">
          <mxGeometry x="190" y="-200" width="120" height="60" as="geometry" />
        </mxCell>
        <mxCell id="DP1_wo8riHDdqW7WoeD3-42" value="" style="endArrow=none;html=1;rounded=0;" parent="1" edge="1">
          <mxGeometry width="50" height="50" relative="1" as="geometry">
            <mxPoint x="305" y="-180" as="sourcePoint" />
            <mxPoint x="355" y="-230" as="targetPoint" />
          </mxGeometry>
        </mxCell>
        <mxCell id="60571a20871a0731-5" value="" style="shape=mxgraph.bpmn.shape;html=1;verticalLabelPosition=bottom;labelBackgroundColor=#ffffff;verticalAlign=top;perimeter=ellipsePerimeter;outline=end;symbol=terminate;rounded=0;shadow=0;comic=0;strokeWidth=1;fontFamily=Verdana;fontSize=12;align=center;" parent="1" vertex="1">
          <mxGeometry x="670" y="1540" width="40" height="40" as="geometry" />
        </mxCell>
        <mxCell id="1c1d494c118603dd-45" style="edgeStyle=none;rounded=0;html=1;labelBackgroundColor=none;startArrow=none;startFill=0;startSize=5;endArrow=classicThin;endFill=1;endSize=5;jettySize=auto;orthogonalLoop=1;strokeWidth=1;fontFamily=Verdana;fontSize=12" parent="1" source="1c1d494c118603dd-19" edge="1">
          <mxGeometry relative="1" as="geometry">
            <mxPoint x="703.7324706594154" y="1691.4597369488538" as="targetPoint" />
          </mxGeometry>
        </mxCell>
        <mxCell id="OMoWTiOt0C33IlhXWpdB-68" value="Admin Related" style="swimlane;html=1;startSize=20;" vertex="1" parent="1">
          <mxGeometry x="-660" y="34" width="740" height="1380" as="geometry" />
        </mxCell>
        <mxCell id="OMoWTiOt0C33IlhXWpdB-84" style="edgeStyle=orthogonalEdgeStyle;rounded=0;orthogonalLoop=1;jettySize=auto;html=1;" edge="1" parent="OMoWTiOt0C33IlhXWpdB-68" source="DP1_wo8riHDdqW7WoeD3-12" target="1c1d494c118603dd-7">
          <mxGeometry relative="1" as="geometry" />
        </mxCell>
        <mxCell id="OMoWTiOt0C33IlhXWpdB-88" value="" style="edgeStyle=orthogonalEdgeStyle;rounded=0;orthogonalLoop=1;jettySize=auto;html=1;" edge="1" parent="OMoWTiOt0C33IlhXWpdB-68" source="DP1_wo8riHDdqW7WoeD3-12">
          <mxGeometry relative="1" as="geometry">
            <mxPoint x="120" y="956" as="targetPoint" />
          </mxGeometry>
        </mxCell>
        <mxCell id="OMoWTiOt0C33IlhXWpdB-113" style="edgeStyle=orthogonalEdgeStyle;rounded=0;orthogonalLoop=1;jettySize=auto;html=1;entryX=0.5;entryY=0;entryDx=0;entryDy=0;" edge="1" parent="OMoWTiOt0C33IlhXWpdB-68" source="DP1_wo8riHDdqW7WoeD3-12" target="OMoWTiOt0C33IlhXWpdB-112">
          <mxGeometry relative="1" as="geometry" />
        </mxCell>
        <mxCell id="DP1_wo8riHDdqW7WoeD3-12" value="Render Admin Homepage" style="rounded=1;whiteSpace=wrap;html=1;shadow=0;comic=0;labelBackgroundColor=none;strokeWidth=1;fontFamily=Verdana;fontSize=12;align=center;arcSize=50;" parent="OMoWTiOt0C33IlhXWpdB-68" vertex="1">
          <mxGeometry x="223.5" y="760" width="100" height="30" as="geometry" />
        </mxCell>
        <mxCell id="OMoWTiOt0C33IlhXWpdB-38" value="Admin&lt;br&gt;" style="text;html=1;align=center;verticalAlign=middle;resizable=0;points=[];autosize=1;strokeColor=none;fillColor=none;" vertex="1" parent="OMoWTiOt0C33IlhXWpdB-68">
          <mxGeometry x="370" y="656" width="60" height="30" as="geometry" />
        </mxCell>
        <mxCell id="1c1d494c118603dd-7" value="Admin releases another news( image, description, link)" style="rounded=1;whiteSpace=wrap;html=1;shadow=0;comic=0;labelBackgroundColor=none;strokeWidth=1;fontFamily=Verdana;fontSize=12;align=center;arcSize=50;" parent="OMoWTiOt0C33IlhXWpdB-68" vertex="1">
          <mxGeometry x="279" y="995" width="260" height="71" as="geometry" />
        </mxCell>
        <mxCell id="OMoWTiOt0C33IlhXWpdB-87" value="Add new Professor/Admin" style="rounded=1;whiteSpace=wrap;html=1;fontFamily=Verdana;shadow=0;comic=0;labelBackgroundColor=none;strokeWidth=1;arcSize=50;" vertex="1" parent="OMoWTiOt0C33IlhXWpdB-68">
          <mxGeometry x="60" y="888" width="120" height="60" as="geometry" />
        </mxCell>
        <mxCell id="OMoWTiOt0C33IlhXWpdB-111" value="email" style="text;html=1;align=center;verticalAlign=middle;resizable=0;points=[];autosize=1;strokeColor=none;fillColor=none;" vertex="1" parent="OMoWTiOt0C33IlhXWpdB-68">
          <mxGeometry x="630" y="826" width="50" height="30" as="geometry" />
        </mxCell>
        <mxCell id="OMoWTiOt0C33IlhXWpdB-112" value="Send Email" style="rounded=1;whiteSpace=wrap;html=1;shadow=0;comic=0;labelBackgroundColor=none;strokeWidth=1;fontFamily=Verdana;fontSize=12;align=center;arcSize=50;" vertex="1" parent="OMoWTiOt0C33IlhXWpdB-68">
          <mxGeometry x="570" y="886" width="110" height="30" as="geometry" />
        </mxCell>
        <mxCell id="OMoWTiOt0C33IlhXWpdB-32" style="edgeStyle=orthogonalEdgeStyle;rounded=0;orthogonalLoop=1;jettySize=auto;html=1;entryX=0.25;entryY=0;entryDx=0;entryDy=0;" edge="1" parent="1" source="OMoWTiOt0C33IlhXWpdB-7" target="DP1_wo8riHDdqW7WoeD3-12">
          <mxGeometry relative="1" as="geometry" />
        </mxCell>
        <mxCell id="OMoWTiOt0C33IlhXWpdB-93" value="releae of news" style="text;html=1;align=center;verticalAlign=middle;resizable=0;points=[];autosize=1;strokeColor=none;fillColor=none;" vertex="1" parent="1">
          <mxGeometry x="-110" y="1104" width="100" height="30" as="geometry" />
        </mxCell>
        <mxCell id="OMoWTiOt0C33IlhXWpdB-153" style="edgeStyle=orthogonalEdgeStyle;rounded=0;orthogonalLoop=1;jettySize=auto;html=1;entryX=0;entryY=0.5;entryDx=0;entryDy=0;" edge="1" parent="1" source="1c1d494c118603dd-7" target="OMoWTiOt0C33IlhXWpdB-95">
          <mxGeometry relative="1" as="geometry" />
        </mxCell>
      </root>
    </mxGraphModel>
  </diagram>
</mxfile>
